<svg xmlns="http://www.w3.org/2000/svg" viewBox="0 0 849.32 512"><defs><style>.cls-1{fill:transparent;}.cls-2{fill:#fff;}.cls-3{fill:#edff7a;}</style></defs><g id="圖層_2" data-name="圖層 2"><g id="圖層_1-2" data-name="圖層 1"><rect class="cls-1" width="849.32" height="512"/><path class="cls-2" d="M276.31,135.5,345.88,256,276.31,376.5H137.17L67.6,256l69.57-120.5H276.74m8.81-16H127.93L49.12,256l78.81,136.5H285.55L364.36,256,285.55,119.5Z"/><polygon class="cls-2" points="302.63 256.91 111.2 256.91 137.44 211.47 276.4 211.47 302.63 256.91"/><polygon class="cls-2" points="185.63 273.5 292.48 273.5 267.35 318.03 211.34 318.03 185.63 273.5"/><polygon class="cls-3" points="219.38 331.97 302.02 331.97 276.31 376.5 245.09 376.5 219.38 331.97"/><path class="cls-2" d="M423.69,343.6V323.16H521.3l27.26-94.81h38.28l-26.66,94.81h41.09V343.6Zm5.41-127.27V196.28h64.34l-4.81-28.86h41.89l5,28.86h59.13v20.05Zm36.28,97-29.07-85H475.4l29.26,85Z"/><path class="cls-2" d="M671,223.14v88l9.82-2.4v19.84L624.32,343.8V324L636,320.75V223.14H625.52V204.3H636V166H671V204.3h11.63v18.84ZM731,262.63l-3.4,7.21h72.36V343.4H759.22l-8-14.63-5.41,14.63H714.32l17.23-49.1h30.67l-9.82,30.06h12V287.88h-45.3l-3,6.42h10L708.5,343.4H676.43l15.84-42.89H675.63l18.64-37.88H678.64v-19H801.51v19Zm-43.89-26.26V169H794.89v67.35Zm72.16-48.71H722.54v7h36.68Zm0,23.05H722.54v7h36.68Z"/></g></g></svg>