<svg xmlns="http://www.w3.org/2000/svg" viewBox="0 0 849.32 512"><defs><style>.cls-1{fill:transparent;}.cls-2{fill:#edff7a;}.cls-3{fill:#fff;}</style></defs><g id="圖層_2" data-name="圖層 2"><g id="圖層_1-2" data-name="圖層 1"><rect class="cls-1" width="849.32" height="512"/><polygon class="cls-2" points="345.21 100.33 308.65 100.33 288.4 136.89 324.96 136.89 345.21 100.33"/><path class="cls-3" d="M285.55,136.84H127.93L49.12,273.34l78.81,136.5H285.55l78.81-136.5Zm-9.24,257H137.17L67.6,273.34l29-50.17,14.54,25.2,41-70.53h78.78l-14.35-25h59.8l69.57,120.5Z"/><path class="cls-3" d="M575.44,227.71l-2.92,8.38h26.12v81.5H520.26v-15L469.76,341H425.31l39.77-30.61V268.65H427.84V250.91h6.83V219.52h22.22v31.39h6.05V210.55h33.53v13.06h16v17.16h-16v10.14h19.11v17.74H496.47v18.13l9-7h14.82V236.09h19.11l2.92-8.38H515.58V210.35h86.77v17.36ZM453.38,314.47H426.67l8.39-39.58h26.32Zm116.21-118v9.36H532.94v-9.36H498.23v9.36H462v-9.36H427.65V178.38H462V168.24h36.27v10.14h34.71V168.24h36.65v10.14h33.73v18.13ZM541.12,341H505.83l17-18.72h35.09Zm25.35-88.72H550.68v6.83h15.79Zm0,20.09H550.68v7.21h15.79Zm0,21.25H550.68V301h15.79ZM572.91,341l-13.65-18.72h33.53L606.44,341Z"/><path class="cls-3" d="M661.62,340H620.87l25.35-44.84H687Zm67.27-52.64V340H691.26V287.37H623.41V268.85h67.85V255.78H629.84v-85.2H790.11v85.2H728.89v13.07h68.83v18.52ZM691.26,189.3H666.11v14.81h25.15Zm0,32.95H666.11v15h25.15Zm63-32.95H728.89v14.81h25.35Zm0,32.95H728.89v15h25.35ZM759.11,340l-25.54-44.84h40.75l25,44.84Z"/></g></g></svg>