<svg xmlns="http://www.w3.org/2000/svg" viewBox="0 0 849.32 512"><defs><style>.cls-1{fill:transparent;}.cls-2{fill:#fff;}.cls-3{fill:#edff7a;}</style></defs><g id="圖層_2" data-name="圖層 2"><g id="圖層_1-2" data-name="圖層 1"><rect class="cls-1" width="849.32" height="512"/><path class="cls-2" d="M461.07,230.69v111.8h-32.6v-173h81v61.2Zm18.2-45.4h-18.2v8h18.2Zm0,21.2h-18.2v8.2h18.2Zm75.6,115.2v16.4h-32v-14.6l-55.6,3v-16.8l6-.4v-55h-6.6v-16.4h94.6v16.4h-6.4v50.8l7.2-.4v16.6Zm-32-67.4h-17.6v7.8h17.6Zm0,22h-17.6v8.4h17.6Zm0,22.4h-17.6v9l17.6-.8Zm42.4,43.8-7.2-16.6h7.8v-95.2h-47.2v-61.2h80.2v173Zm.6-157.2h-17.8v8h17.8Zm0,21.2h-17.8v8.2h17.8Z"/><path class="cls-2" d="M667.07,198.89v111.6l-8.4,32.4h-36.4l9.8-38.6v-124h63.8l-2.6-13h40.6l3.4,13h64.59v18.6Zm85.4,129.2v14.8h-33.6v-14.8h-48.6v-17.4h48.6v-8h-43.6v-67h43.6v-7.8h-46.4v-16.6h46.4v-7.6h33.6v7.6h46.79v16.6H752.47v7.8h43.59v67H752.47v8h48.19v17.4Zm-33.6-75.6h-13.4v8.8h13.4Zm0,24.4h-13.4v8.8h13.4Zm46.79-24.4H752.47v8.8h13.19Zm0,24.4H752.47v8.8h13.19Z"/><polygon class="cls-3" points="316.31 270.84 297.84 270.84 237.36 375.59 255.84 375.59 316.31 270.84"/><polygon class="cls-2" points="285.55 118.59 127.93 118.59 49.13 255.09 127.93 391.59 207.33 254.59 281.25 254.59 244 190.06 169.49 190.06 99.92 311.06 99.92 311.06 67.6 255.09 137.17 134.59 276.74 134.59 345.88 255.09 276.31 375.59 217.15 375.59 277.63 270.84 259.15 270.84 198.68 375.59 179.06 375.59 239.54 270.84 221.07 270.84 151.5 391.34 285.55 391.59 364.36 255.09 285.55 118.59"/></g></g></svg>