<svg xmlns="http://www.w3.org/2000/svg" viewBox="0 0 972.62 483.01"><defs><style>.cls-1,.cls-4{opacity:0.2;}.cls-2,.cls-4{fill:#fff;}.cls-3{fill:#edff7a;}</style></defs><g id="圖層_2" data-name="圖層 2"><g id="圖層_1-2" data-name="圖層 1"><g class="cls-1"><path class="cls-2" d="M585.59,222.67,629.66,299l-44.07,76.33H497.46L453.39,299l44.07-76.33h88.41m5.57-10.13H491.61L441.69,299l49.92,86.46h99.83L641.36,299l-49.92-86.46Z"/><polygon class="cls-2" points="602.27 299.58 481 299.58 497.63 270.79 585.65 270.79 602.27 299.58"/><polygon class="cls-2" points="528.15 310.08 595.84 310.08 579.91 338.29 544.44 338.29 528.15 310.08"/><polygon class="cls-3" points="549.53 347.12 601.88 347.12 585.59 375.33 565.82 375.33 549.53 347.12"/></g><g class="cls-1"><polygon class="cls-3" points="629.34 0 606.18 0 593.36 23.16 616.52 23.16 629.34 0"/><polygon class="cls-2" points="481.06 93.77 466.19 68.01 492.24 23.13 542.01 23.13 556.91 49.1 507.01 49.1 481.06 93.77"/><path class="cls-2" d="M585.7,33.26l44.07,76.33L585.7,185.92H497.57L453.5,109.59l44.07-76.33H586m5.58-10.13H491.72L441.8,109.59l49.92,86.46h99.84l49.91-86.46L591.56,23.13Z"/></g><path class="cls-4" d="M750.69,127.87l44.07,76.33-44.07,76.32H662.55L618.49,204.2l44.06-76.33H751m5.58-10.14H656.7L606.78,204.2l49.92,86.46h99.84l49.92-86.46-49.92-86.47Z"/><polygon class="cls-3" points="429.78 217.1 411.3 217.1 350.82 321.85 369.3 321.85 429.78 217.1"/><polygon class="cls-2" points="399.01 64.85 241.4 64.85 162.59 201.35 241.4 337.85 320.8 200.85 394.71 200.85 357.46 136.33 282.95 136.33 213.38 257.33 213.38 257.33 181.06 201.35 250.63 80.85 390.2 80.85 459.35 201.35 389.77 321.85 330.62 321.85 391.09 217.1 372.62 217.1 312.14 321.85 292.53 321.85 353.01 217.1 334.53 217.1 264.96 337.6 399.01 337.85 477.82 201.35 399.01 64.85"/><path class="cls-2" d="M570.14,183.07v83.78H545.71V137.2h60.7v45.87Zm13.64-34H570.14v6h13.64Zm0,15.89H570.14v6.15h13.64Zm56.66,86.34v12.29h-24V252.61l-41.66,2.25V242.27l4.49-.3V200.75h-4.94V188.46h70.89v12.29h-4.79v38.07l5.39-.29V251Zm-24-50.52H603.27v5.85h13.18Zm0,16.49H603.27v6.3h13.18Zm0,16.79H603.27v6.74l13.18-.6Zm31.78,32.82-5.4-12.44h5.85V183.07H613.31V137.2h60.1V266.85ZM648.68,149H635.34v6h13.34Zm0,15.89H635.34v6.15h13.34Z"/><path class="cls-2" d="M724.52,159.24v83.63l-6.29,24.28H691l7.34-28.92V145.3h47.82l-2-9.75h30.42l2.55,9.75h48.41v13.94Zm64,96.82v11.09H763.34V256.06H726.92V243h36.42v-6H730.67V186.82h32.67V181H728.57V168.53h34.77v-5.7h25.18v5.7H823.6V181H788.52v5.85H821.2V237H788.52v6h36.12v13Zm-25.18-56.65h-10V206h10Zm0,18.28h-10v6.6h10Zm35.08-18.28h-9.9V206h9.9Zm0,18.28h-9.9v6.6h9.9Z"/><path class="cls-4" d="M750.69,320.22l44.07,76.33-44.07,76.33H662.55l-44.06-76.33,44.06-76.33H751m5.58-10.14H656.7l-49.92,86.47L656.7,483h99.84l49.92-86.46-49.92-86.47Z"/><path class="cls-4" d="M916.85,33l44.07,76.33L916.85,185.7H828.72l-44.07-76.33L828.72,33h88.41m5.57-10.13H822.87L773,109.37l49.92,86.46H922.7l49.92-86.46L922.7,22.91Z"/><path class="cls-4" d="M916.85,222.67,960.92,299l-44.07,76.33H828.72L784.65,299l44.07-76.33h88.41m5.57-10.13H822.87L773,299l49.92,86.46H922.7L972.62,299,922.7,212.54Z"/><path class="cls-4" d="M143.91,223.25,188,299.58l-44.07,76.33H55.77L11.7,299.58l44.07-76.33h88.41m5.58-10.14H49.92L0,299.58,49.92,386h99.84l49.92-86.46-49.92-86.47Z"/></g></g></svg>