<svg xmlns="http://www.w3.org/2000/svg" viewBox="0 0 315.23 273"><defs><style>.cls-1{fill:#ff8360;}</style></defs><g id="圖層_2" data-name="圖層 2"><g id="圖層_1-2" data-name="圖層 1"><polygon class="cls-1" points="267.19 152.25 248.71 152.25 188.24 257 206.71 257 267.19 152.25"/><polygon points="236.43 0 78.81 0 0 136.5 78.81 273 158.21 136 232.13 136 194.87 71.47 120.36 71.47 50.79 192.47 50.79 192.47 18.48 136.5 88.05 16 227.62 16 296.76 136.5 227.19 257 168.03 257 228.5 152.25 210.03 152.25 149.55 257 129.94 257 190.42 152.25 171.94 152.25 102.37 272.75 236.43 273 315.23 136.5 236.43 0"/></g></g></svg>