<svg xmlns="http://www.w3.org/2000/svg" viewBox="0 0 340.97 347.12"><defs><style>.cls-1{fill:#4c4c4c;}</style></defs><g id="圖層_2" data-name="圖層 2"><g id="圖層_1-2" data-name="圖層 1"><polyline points="154.97 327.88 96.21 328.12 21.93 199.47 96.21 70.82 244.76 70.82 319.04 199.47 288.07 253.12 222.5 141.27 114.98 141.27 79.96 199.47 170.49 199.47 248.17 334.03 255.73 347.12 340.97 199.47 255.73 51.83 85.24 51.83 0 199.47 85.24 347.12 229.38 347.02 156.78 221.31 134.85 221.31 196.44 327.8 176.55 327.87 116.1 223.16 94.17 223.16"/><polygon class="cls-1" points="76.48 223.03 54.55 223.03 115.18 327.88 137.08 328 76.48 223.03"/><polygon class="cls-1" points="331.86 0 280.42 0 254.71 51.43 306.14 51.43 331.86 0"/></g></g></svg>