<svg xmlns="http://www.w3.org/2000/svg" viewBox="0 0 1123.33 388.22"><defs><style>.cls-1{fill:#fff;}.cls-2{fill:#edff7a;}</style></defs><g id="圖層_2" data-name="圖層 2"><g id="圖層_1-2" data-name="圖層 1"><polyline class="cls-1" points="205.66 366.94 270.64 367.22 352.77 224.96 270.64 82.71 106.38 82.71 24.25 224.96 58.49 284.28 130.99 160.61 249.88 160.61 288.6 224.96 188.51 224.96 102.61 373.74 94.25 388.22 0 224.96 94.25 61.71 282.76 61.71 377.02 224.96 282.76 388.22 123.39 388.11 203.66 249.11 227.91 249.11 159.81 366.86 181.8 366.93 248.65 251.15 272.9 251.15"/><polygon class="cls-2" points="292.45 251.02 316.7 251.02 249.66 366.94 225.44 367.08 292.45 251.02"/><path class="cls-1" d="M458.83,295.57H421.19l23.41-41.42h37.64ZM521,247v48.62H486.2V247H423.54V229.84H486.2V217.77H429.48V139.08h148v78.69H521v12.07h63.57V247ZM486.2,156.36H463v13.69H486.2Zm0,30.44H463v13.86H486.2Zm58.17-30.44H521v13.69h23.41Zm0,30.44H521v13.86h23.41Zm4.5,108.77-23.59-41.42h37.64L586,295.57Z"/><path class="cls-1" d="M737.78,277.56l-6.12-9.36L725,277.56H701v4.14h60.69v14.41H606V281.7h61.77v-4.14H644.5l-5.59-9.72-7.2,9.72H603.8l15.66-21.79H607.4V241.72H760.29v14.05h-20l-3.24,4.5h15.49l11.34,17.29ZM731.3,199V173.47H700.68V199H667.73V173.47H637.11V199H606V158.89h61.77v-6.13H609.92v-14H757.77v14H700.68v6.13h61.23V199Zm-123,37.64v-33h48.26v33Zm28.81-21.07h-8.82v9h8.82Zm3.42-29.17v-8.65h22.7v8.65Zm0,12.6v-8.28h22.7V199Zm27.2,56.73H647.56l-3.24,4.5h14.94l8.47,13.15Zm39.62-19.09H661.06v-33h46.29ZM689,215.61h-8.65v9H689ZM701,255.77V272.7l11.89-16.93Zm3.78-69.33v-8.65h22.33v8.65Zm0,12.6v-8.28h22.33V199ZM712,236.68v-33h47.9v33Zm28.27-21.07h-8.82v9h8.82Z"/><path class="cls-1" d="M816.47,194.72V295.39H787.12V139.62h72.93v55.1Zm16.39-40.88H816.47v7.21h16.39Zm0,19.09H816.47v7.39h16.39Zm68.07,103.73v14.77H872.12V278.28L822.06,281V265.86l5.4-.36V216h-5.94V201.21H906.7V216h-5.77v45.74l6.49-.36V276.3ZM872.12,216H856.27v7h15.85Zm0,19.81H856.27v7.57h15.85Zm0,20.17H856.27v8.1l15.85-.72Zm38.18,39.44-6.49-14.95h7V194.72h-42.5v-55.1h72.21V295.39Zm.54-141.55h-16v7.21h16Zm0,19.09h-16v7.39h16Z"/><path class="cls-1" d="M1002,166.09V266.58l-7.57,29.17H961.62L970.44,261V149.34h57.45l-2.34-11.7h36.56l3.06,11.7h58.16v16.75Zm76.89,116.33v13.33H1048.6V282.42h-43.76V266.76h43.76v-7.21h-39.26V199.22h39.26v-7h-41.78V177.25h41.78v-6.84h30.25v6.84H1121V192.2h-42.14v7h39.26v60.33h-39.26v7.21h43.4v15.66Zm-30.25-68.07h-12.07v7.93h12.07Zm0,22h-12.07v7.93h12.07Zm42.14-22h-11.89v7.93h11.89Zm0,22h-11.89v7.93h11.89Z"/><polygon class="cls-2" points="376.98 0 315.13 0 284.2 61.85 346.06 61.85 376.98 0"/></g></g></svg>