<svg xmlns="http://www.w3.org/2000/svg" viewBox="0 0 1078.7 376.53"><defs><style>.cls-1{fill:#1d201f;}.cls-2{fill:#ff8360;}</style></defs><g id="圖層_2" data-name="圖層 2"><g id="圖層_1-2" data-name="圖層 1"><path class="cls-1" d="M482.22,187.33v16.55H459.55V187.33H418V175.57l44-65.07h20.22v64.95h9.93v11.88Zm-22.67-52.57L432,175.45h27.57Z"/><path class="cls-1" d="M500.84,203.88V110.5h71.32v93.38ZM547.78,123H525.11v68.38h22.67Z"/><path class="cls-1" d="M645.19,187.33v16.55H622.52V187.33H581V175.57l44-65.07h20.22v64.95h9.93v11.88Zm-22.67-52.57L595,175.45h27.57Z"/><path class="cls-1" d="M481,322.42l-33.58-57.59v57.59h-24.5v-93.5h27.69l33.33,59v-59h24.27v93.5Z"/><path class="cls-1" d="M518.34,322.42V256.86h69v65.56Zm45.71-53.91h-22.3V311h22.3Z"/><path class="cls-1" d="M646,322.42h-38.6V268.51H594.8V257h12.63V235.42h23.4V257h17.65v11.52H630.83v42.64h20.22Z"/><path class="cls-1" d="M716.48,241.42v27h45.1v12.75h-45.1v41.29H692.1v-93.5h72.18v12.5Z"/><path class="cls-1" d="M771.75,322.42V256.86h69v65.56Zm45.7-53.91h-22.3V311h22.3Z"/><path class="cls-1" d="M896.37,322.42v-9.8l-5.64,9.8h-40V256.86h23.16v53.68h22.43V256.86h23.4v65.56Z"/><path class="cls-1" d="M975.77,322.42V268.63H953.22v53.79h-23.4V257h23.4v9.68L960,257h39.09v65.43Z"/><path class="cls-1" d="M1055.29,322.42v-9.68l-6.74,9.68H1009.1V256.86h39.33l6.86,9.56v-37.5h23.41v93.5Zm0-53.91H1032.5v42.15h22.79Z"/><polyline class="cls-1" points="204.41 355.39 268.99 355.66 350.62 214.27 268.99 72.89 105.73 72.89 24.1 214.27 58.14 273.23 130.19 150.31 248.36 150.31 286.84 214.27 187.36 214.27 101.98 362.14 93.68 376.53 0 214.27 93.68 52.01 281.04 52.01 374.72 214.27 281.04 376.53 122.63 376.43 202.42 238.27 226.52 238.27 158.83 355.3 180.69 355.37 247.13 240.3 271.23 240.3"/><polygon class="cls-2" points="290.67 240.17 314.77 240.17 248.14 355.39 224.07 355.52 290.67 240.17"/><polygon class="cls-2" points="361.21 0 309.37 0 283.45 51.84 335.29 51.84 361.21 0"/></g></g></svg>